<?xml version="1.0" ?><!DOCTYPE svg  PUBLIC '-//W3C//DTD SVG 1.1//EN'  'http://www.w3.org/Graphics/SVG/1.1/DTD/svg11.dtd'><svg height="48px" id="Layer_1" style="enable-background:new 0 0 48 48;" version="1.1" viewBox="0 0 48 48" width="48px" x="0px" xml:space="preserve" xmlns="http://www.w3.org/2000/svg" xmlns:xlink="http://www.w3.org/1999/xlink" y="0px"><path d="M17.543,33.706c0,1.335-1.082,2.417-2.417,2.417l0,0  c-1.335,0-2.417-1.082-2.417-2.417l0,0c0-1.335,1.082-2.417,2.417-2.417l0,0C16.461,31.289,17.543,32.371,17.543,33.706  L17.543,33.706z" style="fill:none;stroke:#231F20;stroke-miterlimit:10;"/><path d="M26.709,33.705c0,1.335-1.082,2.417-2.417,2.417l0,0  c-1.335,0-2.417-1.082-2.417-2.417l0,0c0-1.335,1.082-2.417,2.417-2.417l0,0C25.627,31.288,26.709,32.37,26.709,33.705  L26.709,33.705z" style="fill:none;stroke:#231F20;stroke-miterlimit:10;"/><path d="M35.907,33.664c0,1.335-1.082,2.417-2.417,2.417l0,0  c-1.335,0-2.417-1.082-2.417-2.417l0,0c0-1.335,1.082-2.417,2.417-2.417l0,0C34.825,31.247,35.907,32.329,35.907,33.664  L35.907,33.664z" style="fill:none;stroke:#231F20;stroke-miterlimit:10;"/><path d="M26.667,13.873c0,1.335-1.082,2.417-2.417,2.417l0,0  c-1.335,0-2.417-1.082-2.417-2.417l0,0c0-1.335,1.082-2.417,2.417-2.417l0,0C25.585,11.456,26.667,12.538,26.667,13.873  L26.667,13.873z" style="fill:none;stroke:#231F20;stroke-miterlimit:10;"/><line style="fill:none;stroke:#231F20;stroke-miterlimit:10;" x1="24.349" x2="24.349" y1="31.008" y2="16.039"/><line style="fill:none;stroke:#231F20;stroke-miterlimit:10;" x1="16.021" x2="24.459" y1="31.445" y2="23.008"/><line style="fill:none;stroke:#231F20;stroke-miterlimit:10;" x1="24.24" x2="32.646" y1="23.07" y2="31.477"/></svg>