<?xml version="1.0" ?><svg height="612" id="svg2169" inkscape:export-filename="/home/joanna/gfx/vector/aiga/aiga_stairs1.png" inkscape:export-xdpi="29.411764" inkscape:export-ydpi="29.411764" inkscape:output_extension="org.inkscape.output.svg.inkscape" inkscape:version="0.46" sodipodi:docbase="/datas/Projs/Cliparts Stocker/tmp/AIGA" sodipodi:docname="aiga_stairs1.svg" sodipodi:version="0.32" version="1.0" width="612" xmlns="http://www.w3.org/2000/svg" xmlns:cc="http://creativecommons.org/ns#" xmlns:dc="http://purl.org/dc/elements/1.1/" xmlns:inkscape="http://www.inkscape.org/namespaces/inkscape" xmlns:rdf="http://www.w3.org/1999/02/22-rdf-syntax-ns#" xmlns:sodipodi="http://sodipodi.sourceforge.net/DTD/sodipodi-0.dtd" xmlns:svg="http://www.w3.org/2000/svg"><sodipodi:namedview bordercolor="#666666" borderopacity="1.0" id="base" pagecolor="#ffffff" showgrid="false"/><defs id="defs2171"><inkscape:perspective id="perspective16"/><marker id="ArrowEnd" markerHeight="3" markerUnits="strokeWidth" markerWidth="4" orient="auto" refX="0" refY="5" viewBox="0 0 10 10"><path d="M 0,0 L 10,5 L 0,10 L 0,0 z" id="path2174"/></marker><marker id="ArrowStart" markerHeight="3" markerUnits="strokeWidth" markerWidth="4" orient="auto" refX="10" refY="5" viewBox="0 0 10 10"><path d="M 10,0 L 0,5 L 10,10 L 10,0 z" id="path2177"/></marker></defs><g id="g9132" transform="translate(-8.19e-2,-0.5853944)"><g id="g2179"><path d="M 82.4318,17.9239 C 41.0968,17.9239 17.8608,39.2949 17.8608,82.9599 L 17.8608,533.082 C 17.8608,573.925 38.7518,595.31 80.0528,595.31 L 532.077,595.31 C 573.38,595.31 594.303,574.99 594.303,533.082 L 594.303,82.9599 C 594.303,40.3599 573.38,17.9239 530.78,17.9239 C 530.78,17.9239 82.2888,17.7819 82.4318,17.9239 z" id="path2181" style="fill:#000000;stroke:#ffffff;stroke-width:3.40799999"/></g><g id="g2183"><path d="M 90.7058,443.447 L 170.756,443.447 L 170.756,361.973 L 250.29,361.973 L 250.29,279.947 L 331.079,279.947 L 331.079,199.448 L 411.32,199.448 L 411.32,119.474 L 530.458,119.474 L 530.458,160.278 L 451.256,160.278 L 451.256,240.555 L 370.924,240.555 L 370.924,321.964 L 290.756,321.964 L 290.756,402.947 L 210.256,402.947 L 210.256,484.619 L 90.7058,484.619 L 90.7058,443.447 z" id="path2185" style="fill:#ffffff;stroke:none"/></g></g></svg>