<svg version="1.1" viewBox="0 0 141 141"><path d="M120.957,114.575H114.8v25.785h6.157V114.575z M112.544,114.673h-6.156v25.854h6.156V114.673z M100.037,95.251   c3.772,0.002,6.831,4.924,6.831,11.003h4.553c0-10.127-5.101-18.338-11.388-18.339L100.037,95.251L100.037,95.251z M103.8,114.575   H0v25.873h103.8V114.575z M93.207,18.336c0-6.079,3.059-11.001,6.829-11.001V0c-6.285,0-11.385,8.209-11.385,18.336   c0,10.126,5.1,18.334,11.386,18.334c3.772,0,6.831,4.922,6.831,11.001c0,6.077-3.059,11-6.831,11   c-6.286,0-11.386,8.209-11.386,18.335c0,10.128,5.1,18.336,11.386,18.336v-7.336c-3.771,0-6.829-4.922-6.829-11   c0-6.076,3.058-11.001,6.829-11.001c6.288,0,11.385-8.208,11.385-18.334s-5.097-18.335-11.385-18.335   C96.266,29.337,93.207,24.41,93.207,18.336 M128.599,47.67c0-10.125-5.098-18.335-11.388-18.335c-3.771,0-6.829-4.925-6.829-11   c0-6.078,3.056-11.001,6.829-11.001V0c-6.285,0-11.383,8.209-11.383,18.337c0,10.126,5.098,18.334,11.383,18.334   c3.774,0,6.831,4.922,6.831,11.001c0,6.077-3.056,11-6.831,11c-6.285,0-11.383,8.209-11.383,18.335   c0,10.128,5.098,18.337,11.383,18.337v-7.337c-3.771,0-6.829-4.922-6.829-11c0-6.076,3.056-11.001,6.829-11.001   C123.502,66.005,128.599,57.796,128.599,47.67 M124.044,106.254h4.554c0-10.127-5.098-18.338-11.386-18.339v7.336   C120.986,95.253,124.044,100.177,124.044,106.254 M129.366,114.741h-6.157v25.788h6.157V114.741z"/></svg>