<?xml version="1.0" encoding="utf-8"?>
<!-- Generator: Adobe Illustrator 17.0.0, SVG Export Plug-In . SVG Version: 6.00 Build 0)  -->
<!DOCTYPE svg PUBLIC "-//W3C//DTD SVG 1.1//EN" "http://www.w3.org/Graphics/SVG/1.1/DTD/svg11.dtd">
<svg version="1.1" id="Layer_1" xmlns="http://www.w3.org/2000/svg" xmlns:xlink="http://www.w3.org/1999/xlink" x="0px" y="0px"
	 width="512px" height="512px" viewBox="0 0 512 512" enable-background="new 0 0 512 512" xml:space="preserve">
<g>
	<g>
		
			<linearGradient id="SVGID_1_" gradientUnits="userSpaceOnUse" x1="117.2972" y1="91.976" x2="475.086" y2="91.976" gradientTransform="matrix(1 0 0 -1 -41.5 348)">
			<stop  offset="0" style="stop-color:#999999"/>
			<stop  offset="0.1985" style="stop-color:#929292"/>
			<stop  offset="0.4869" style="stop-color:#7F7F7F"/>
			<stop  offset="0.8287" style="stop-color:#5F5F5F"/>
			<stop  offset="1" style="stop-color:#4D4D4D"/>
		</linearGradient>
		<path fill="url(#SVGID_1_)" d="M431.111,264.808c-2.379-11.306-6.843-20.29-10.711-26.449c-1.289-2.053-2.512-3.792-3.566-5.198
			c-2.109-2.812-3.552-4.292-3.552-4.292s1.963,1.94,4.228,4.486c2.266,2.547,4.824,5.701,5.985,8.128
			c7.854,16.423,9.996,23.087,9.996,23.087s0.699-28.195-6.664-52.124c-5.713-18.564-30.32-38.771-30.32-38.771
			s8.282,6.711,11.518,9.496c3.238,2.788,12.139,14.28,12.139,14.28s0.418-12.582-13.065-28.012
			c-5.262-6.023-19.305-10.545-19.305-10.545s2.857-0.714,8.093,2.38c2.538,1.5,9.759,5.474,9.759,5.474
			c-4.284-22.849-42.127-26.419-72.593-61.644c-10.104-11.683-32.284-25.74-32.284-25.74l-7.344-18.97l-0.61,8.566l-6.731-20.805
			l-1.223,6.12c0,0-4.285-13.463-4.896-15.299c-0.612-1.836-1.836,6.731-1.836,6.731l-4.283-18.357l-3.061,4.895V21.842
			l-10.402,18.97l0.611-11.015l-4.283,18.358l0.612-10.404l-7.344,27.538l1.835-17.134l-5.507,25.089l-1.223-13.462l-3.059,15.91
			l-1.224-6.12l-3.672,17.134c0,0-4.284-0.612-7.343-1.835c-3.06-1.223-11.626-4.896-11.626-4.896l-0.613,3.673l-6.73-4.284
			l-2.449,2.448l-4.283-3.06l-2.448,4.283c0,0-5.452-7.242-7.847-6.085c-1.29,0.624,0.792,5.555-5.554-1.746
			c-3.125-3.591-8.411-4.124-8.411-4.124s3.649,4.26-0.634,3.648c-4.284-0.612-6.608-11.674-10.63-10.472
			c-0.987,0.295-0.296,3.377-3.968,0.318c-3.67-3.061-8.852-9.076-8.852-9.076s3.06,6.12-3.06,3.061
			c-6.119-3.061-9.178-12.239-9.178-12.239l-1.836,4.895l-7.344-10.403l-0.612,4.895l-7.955-5.508l2.448,21.418
			c0,0-4.897-12.851-4.897-8.566c0,4.283,3.672,17.745,3.672,17.745l-4.896-8.567l3.672,13.463l-4.896-3.671l7.955,18.358
			l-3.67-4.284l5.507,13.462l-4.896-4.895l9.792,16.522l-6.733-4.283c0,0,1.836,4.283,4.284,10.403
			c2.449,6.119-4.284,9.791-4.284,9.791l4.896-1.836l-11.627,12.239l6.649-1.363l-12.156,14.214l6.73-4.895l-12.85,19.583
			l5.508-5.508l-9.128,26.588l6.069-9.455l-5.508,18.36l4.896-4.284l-7.343,17.133l3.059-2.447l-1.835,19.583l2.447-1.835
			c0,0-0.573,17.369,3.878,17.917c0.813,0.099,0.406-3.231,0.406-3.231s1.014,11.664,3.561,13.544
			c1.333,0.984-2.38,7.458-2.38,7.458s-14.281,25.229-23.325,40.938c-10.835,18.819-10.79,15.867-14.597,30.465
			c-2.668,10.227,9.96,20.256,13.963,24.436c12.478,13.029,28.524,20.798,46.015,16.502c18.088-4.443,21.745-7.558,40.302-9.996
			c10.493-1.379,12.927,4.933,13.963,5.236c0,0-2.35,5.611-2.222,10.473c0.318,12.06,2.539,13.012,2.539,13.012
			s-1.384,20.828,0.317,28.562c3.491,15.865,6.462,21.837,11.741,28.877c1.904,2.539-0.555-11.459,0.476-8.727
			c3.649,9.679-2.103,6.245,7.934,25.862c6.981,13.647,25.043,21.956,25.043,21.956s-2.815-13.714-2.824-18.356
			c-0.007-3.57,1.264-12.961,1.264-12.961s0.189,10.137,0.793,14.598c2.063,15.232,18.565,20.469,18.565,20.469
			s3.218-12.768,5.502-16.457c2.625-4.247,10.858-10.342,14.121-14.121c2.592-3.003,8.473-13.416,8.473-13.416
			s-3.831,9.577-6.199,12.418c-6.347,7.616-10.79,10.949-10.79,10.949s19.751-0.552,27.133-7.934
			c8.886-8.886,4.603-12.061,11.037-17.551c2.421-2.065,3.721-2.602,3.721-2.602s-3.65,0.953-6.665,7.299
			c-2.154,4.536-3.331,21.897-3.331,21.897s10.647-4.556,14.598-6.188c7.297-3.015,9.679-4.442,13.328-11.266
			c1.32-2.47,3.768-10.552,3.768-10.552s-1.252,6.234-1.864,8.331c-0.748,2.56-4.918,9.679-4.918,9.679s17.613-2.54,31.893-18.882
			c8.614-9.858,12.582-19.062,14.394-25.8c0.604-2.246,0.97-4.219,1.189-5.849c0.44-3.258,0.302-5.149,0.302-5.149l1.887,9.743
			c0,0,11.662-6.664,18.803-18.564c0.898-1.497,1.816-3.841,2.689-6.516c0.872-2.674,1.698-5.677,2.411-8.493
			c1.428-5.633,2.417-10.516,2.417-10.516s0.1,2.914-1.329,9.816c-0.364,1.763-1.094,5.486-1.732,8.769
			c-0.639,3.283-1.186,6.125-1.186,6.125s18.682-11.617,25.528-42.265c0.625-2.797,1.103-5.568,1.46-8.278
			c0.358-2.71,0.598-5.358,0.741-7.905c-0.333-8.682-0.333-18.387-1.412-27.013c1.079,4.313,1.079,7.548,1.724,11.442
			c0.86,5.616,1.771,11.286,1.771,11.286s1.04-3.734,2.066-8.13c4.144-9.207,0.908-17.833-1.248-27.538
			c2.156,6.47,5.392,12.939,4.313,20.487c1.078-5.392,3.234-9.704,3.813-14.62c0.479-3.014,0.863-6.471,1.041-10.332
			C433.834,284.786,433.352,275.448,431.111,264.808z"/>
	</g>
</g>
<g opacity="0.77">
	<defs>
		<filter id="Adobe_OpacityMaskFilter" filterUnits="userSpaceOnUse" x="79.334" y="28.744" width="349.59" height="450.273">
			<feColorMatrix  type="matrix" values="1 0 0 0 0  0 1 0 0 0  0 0 1 0 0  0 0 0 1 0"/>
		</filter>
	</defs>
	<mask maskUnits="userSpaceOnUse" x="79.334" y="28.744" width="349.59" height="450.273" id="SVGID_2_">
		<g filter="url(#Adobe_OpacityMaskFilter)">
		</g>
	</mask>
	<g mask="url(#SVGID_2_)">
		
			<linearGradient id="SVGID_3_" gradientUnits="userSpaceOnUse" x1="120.8338" y1="94.1195" x2="470.4233" y2="94.1195" gradientTransform="matrix(1 0 0 -1 -41.5 348)">
			<stop  offset="0" style="stop-color:#F2F2F2"/>
			<stop  offset="0.1137" style="stop-color:#E2E2E2"/>
			<stop  offset="0.435" style="stop-color:#BBBBBB"/>
			<stop  offset="0.6903" style="stop-color:#A2A2A2"/>
			<stop  offset="0.8462" style="stop-color:#999999"/>
		</linearGradient>
		<path fill="url(#SVGID_3_)" d="M425.948,262.327c-0.557-5.251-3.791-9.563-4.657-14.57c-1.84-4.258-3.861-7.898-5.732-10.858
			c-3.106-2.466-5.263-5.701-6.341-8.936c3.234,4.313,6.47,8.626,9.339,11.939c1.906,3.947,3.465,7.308,4.731,10.128
			c1.268,2.821,2.242,5.102,2.978,6.89c1.473,3.575,1.992,5.177,1.992,5.177s0.679-27.106-6.469-50.111
			c-5.543-17.849-29.425-37.275-29.425-37.275s8.038,6.452,11.177,9.13c3.144,2.68,11.782,13.729,11.782,13.729
			s0.404-12.095-12.681-26.93c-5.106-5.791-18.734-10.137-18.734-10.137s2.771-0.687,7.853,2.287
			c2.463,1.442,9.471,5.262,9.471,5.262c-4.157-21.966-40.885-25.398-70.453-59.263c-9.807-11.232-31.332-24.746-31.332-24.746
			l-7.128-18.238l-0.592,8.236l-6.534-20.001l-1.187,5.883c0,0-4.158-12.942-4.752-14.708c-0.593-1.765-1.78,6.471-1.78,6.471
			l-4.157-17.648l-2.971,4.707V28.744L260.25,46.981l0.594-10.59l-4.157,17.649l0.592-10.002l-7.127,26.476l1.782-16.474
			l-5.345,24.12l-1.187-12.942l-2.969,15.296l-1.189-5.884l-3.564,16.472c0,0-4.157-0.587-7.126-1.764
			c-2.97-1.177-11.284-4.707-11.284-4.707l-0.595,3.53l-6.531-4.118l-2.377,2.354l-4.157-2.942l-2.375,4.118
			c0,0-5.292-6.962-7.615-5.85c-1.253,0.599,0.768,5.339-5.391-1.679c-3.031-3.453-8.162-3.964-8.162-3.964s3.542,4.096-0.616,3.507
			c-4.158-0.587-6.414-11.222-10.317-10.068c-0.958,0.285-0.286,3.247-3.851,0.307c-3.563-2.942-8.591-8.726-8.591-8.726
			s2.969,5.882-2.97,2.942c-5.938-2.942-8.908-11.766-8.908-11.766l-1.782,4.706l-7.127-10l-0.593,4.705l-7.721-5.294l2.376,20.59
			c0,0-4.752-12.354-4.752-8.235c0,4.118,3.564,17.06,3.564,17.06l-4.751-8.235l3.564,12.943l-4.751-3.53l7.72,17.649l-3.563-4.118
			l5.345,12.941l-4.751-4.704l9.504,15.883l-6.535-4.119c0,0,1.782,4.119,4.158,10c2.377,5.884-4.158,9.414-4.158,9.414l4.751-1.764
			l-11.285,11.766l6.454-1.31l-11.797,13.665l6.531-4.707l-12.471,18.827l5.345-5.295l-8.859,25.562l5.89-9.09l-5.345,17.651
			l4.751-4.12l-7.126,16.472l2.968-2.353l-1.781,18.827l2.375-1.765l2.887,17.006l1.271-2.887l1.501,12.039l3.696-3.66
			c0,0-3.948,14.063-28.701,58.333c-1.766,3.156-14.19,19.708-14.281,26.656c-0.132,10.159,10.442,18.788,14.281,22.85
			c22.482,23.796,63.053,6.113,82.6,4.584c10.239-0.8,17.311,6.072,18.316,6.364c0,0-3.457,7.701-3.332,12.377
			c0.308,11.593,2.855,13.804,2.855,13.804s-2.752,12.87-1.102,20.304c3.388,15.255,6.272,20.996,11.396,27.765
			c1.848,2.439-0.538-11.019,0.461-8.392c3.542,9.306-2.04,6.004,7.7,24.864c6.775,13.121,24.306,21.109,24.306,21.109
			s-2.733-13.187-2.742-17.648c-0.006-3.432,1.227-12.461,1.227-12.461s0.184,9.744,0.77,14.034
			c2.003,14.645,18.018,19.678,18.018,19.678s3.124-12.274,5.339-15.822c2.549-4.082,10.539-9.941,13.705-13.574
			c2.516-2.888,8.222-12.898,8.222-12.898s-3.717,9.207-6.015,11.938c-6.161,7.322-10.473,10.525-10.473,10.525
			s19.169-0.53,26.333-7.627c8.624-8.543,4.467-11.593,10.712-16.872c2.349-1.987,3.611-2.502,3.611-2.502s-3.541,0.917-6.469,7.019
			c-2.091,4.36-3.233,21.052-3.233,21.052s10.335-4.382,14.167-5.95c7.084-2.897,9.394-4.271,12.936-10.831
			c1.282-2.374,3.657-10.144,3.657-10.144s-1.215,5.993-1.809,8.009c-0.727,2.461-4.774,9.305-4.774,9.305
			s17.093-2.441,30.954-18.151c2.09-2.369,3.898-4.699,5.462-6.963s2.884-4.46,3.998-6.563c3.517-6.616,6.752-14.164,5.674-21.712
			c1.078,3.234,1.078,6.469,2.156,9.704c3.235-1.078,5.392-3.235,7.309-4.99c2.187-1.879,4.134-3.955,5.871-6.191
			c6.948-8.946,10.542-20.447,12.699-31.949c1.078,6.47-4.313,11.86-3.349,18.135c-0.619,3.155-1.15,5.889-1.15,5.889
			s18.13-11.169,24.775-40.633c0.809-3.584,1.363-7.128,1.733-10.539c1.712-9.514,1.712-19.218-0.444-28.922
			c0,6.47,2.156,12.939,3.234,19.408c4.313-10.782,4.313-22.644,1.078-33.426c2.157,5.391,2.157,11.86,4.313,18.33
			c2.156-11.86,6.47-23.722,3.728-35.374c-0.173-2.226-0.424-4.539-0.769-6.935S426.491,264.885,425.948,262.327z"/>
	</g>
</g>
<g opacity="0.85">
	<defs>
		<filter id="Adobe_OpacityMaskFilter_1_" filterUnits="userSpaceOnUse" x="79.017" y="28.744" width="348.163" height="450.272">
			<feColorMatrix  type="matrix" values="1 0 0 0 0  0 1 0 0 0  0 0 1 0 0  0 0 0 1 0"/>
		</filter>
	</defs>
	<mask maskUnits="userSpaceOnUse" x="79.017" y="28.744" width="348.163" height="450.272" id="SVGID_4_">
		<g filter="url(#Adobe_OpacityMaskFilter_1_)">
		</g>
	</mask>
	<g mask="url(#SVGID_4_)">
		
			<linearGradient id="SVGID_5_" gradientUnits="userSpaceOnUse" x1="120.5167" y1="94.12" x2="468.6801" y2="94.12" gradientTransform="matrix(1 0 0 -1 -41.5 348)">
			<stop  offset="0" style="stop-color:#F2F2F2"/>
			<stop  offset="0.0871" style="stop-color:#E2E2E2"/>
			<stop  offset="0.3333" style="stop-color:#BBBBBB"/>
			<stop  offset="0.5289" style="stop-color:#A2A2A2"/>
			<stop  offset="0.6484" style="stop-color:#999999"/>
		</linearGradient>
		<path fill="url(#SVGID_5_)" d="M424.689,262.329c-1.267-4.244-2.708-8.792-4.406-13.184c-0.851-2.196-1.765-4.353-2.752-6.414
			c-1.844-5.064-6.157-9.377-9.392-14.769c3.234,4.313,6.47,8.626,9.185,11.939c1.338,3.735,3.354,7.22,5.237,10.803
			c1.882,3.583,3.629,7.265,4.428,11.393c0,0,0.075-3.012-0.089-7.88c-0.327-9.735-1.608-26.895-6.355-42.231
			c-5.523-17.849-29.316-37.275-29.316-37.275s8.007,6.452,11.137,9.13c3.13,2.68,11.736,13.729,11.736,13.729
			s0.403-12.095-12.634-26.93c-5.087-5.791-18.667-10.137-18.667-10.137s2.763-0.687,7.826,2.287
			c2.453,1.442,9.436,5.262,9.436,5.262c-4.143-21.966-40.735-25.398-70.194-59.263c-9.771-11.232-31.216-24.746-31.216-24.746
			l-7.102-18.238l-0.59,8.236l-6.512-20.001l-1.181,5.883c0,0-4.145-12.942-4.735-14.708c-0.59-1.765-1.773,6.471-1.773,6.471
			l-4.143-17.648l-2.959,4.707V28.744L259.6,46.982l0.591-10.59l-4.143,17.649l0.591-10.002l-7.1,26.476l1.774-16.474l-5.325,24.12
			l-1.184-12.942l-2.958,15.296l-1.184-5.884l-3.551,16.472c0,0-4.142-0.587-7.101-1.764s-11.242-4.707-11.242-4.707l-0.592,3.53
			l-6.508-4.118l-2.369,2.354l-4.142-2.942l-2.367,4.118c0,0-5.271-6.962-7.587-5.85c-1.248,0.599,0.766,5.339-5.371-1.679
			c-3.021-3.453-8.132-3.964-8.132-3.964s3.529,4.096-0.613,3.507C176.948,79,174.7,68.365,170.811,69.52
			c-0.954,0.285-0.285,3.247-3.836,0.307c-3.549-2.942-8.559-8.726-8.559-8.726s2.958,5.882-2.959,2.942
			c-5.917-2.942-8.875-11.766-8.875-11.766l-1.776,4.706l-7.101-10l-0.591,4.705l-7.692-5.294l2.367,20.59
			c0,0-4.735-12.354-4.735-8.235c0,4.118,3.551,17.06,3.551,17.06l-4.734-8.235l3.551,12.943l-4.734-3.53l7.692,17.649l-3.55-4.118
			l5.325,12.941l-4.734-4.704l9.469,15.883l-6.51-4.119c0,0,1.775,4.119,4.143,10c2.368,5.884-4.143,9.414-4.143,9.414l4.734-1.764
			l-11.244,11.766l6.43-1.31l-11.754,13.665l6.507-4.707l-12.424,18.827l5.325-5.295l-8.827,25.562l5.869-9.09l-5.326,17.651
			l4.734-4.12l-8.35,12.842l3.096-0.785l-1.774,18.827l2.804,0.364l0.476,13.963l2.698-1.428l0.158,13.488l6.347-1.747
			c0,0-5.395,10.314-28.878,53.472c-1.727,3.173-13.873,22.247-13.963,29.196c-0.131,10.159,10.18,15.003,14.004,19.064
			c22.401,23.796,63.378,10.374,82.852,8.845c10.202-0.8,15.06,2.522,16.062,2.814c0,0-2.271,5.394-2.147,10.067
			c0.307,11.594,2.455,12.51,2.455,12.51s-1.337,20.023,0.307,27.457c3.375,15.255,6.249,20.996,11.354,27.765
			c1.841,2.439-0.536-11.019,0.46-8.392c3.529,9.306-2.033,6.004,7.672,24.864c6.75,13.121,24.215,21.109,24.215,21.109
			s-2.722-13.187-2.731-17.648c-0.007-3.432,1.222-12.461,1.222-12.461s0.184,9.744,0.767,14.034
			c1.995,14.645,17.952,19.678,17.952,19.678s3.113-12.274,5.32-15.822c2.539-4.082,10.501-9.941,13.654-13.574
			c2.508-2.888,8.193-12.898,8.193-12.898s-3.704,9.207-5.994,11.938c-6.138,7.322-10.435,10.525-10.435,10.525
			s19.099-0.53,26.236-7.627c8.593-8.543,4.45-11.593,10.674-16.872c2.34-1.987,3.597-2.502,3.597-2.502s-3.529,0.917-6.443,7.019
			c-2.085,4.36-3.222,21.052-3.222,21.052s10.295-4.382,14.114-5.95c7.057-2.897,9.359-4.271,12.888-10.831
			c1.276-2.374,3.644-10.144,3.644-10.144s-1.211,5.993-1.803,8.009c-0.723,2.461-4.757,9.305-4.757,9.305
			s17.031-2.441,30.841-18.151c2.081-2.369,3.883-4.699,5.441-6.963s2.874-4.46,3.986-6.561c3.455-6.618,6.69-14.166,5.612-21.714
			c1.078,3.234,1.078,6.469,2.156,9.704c5.392-2.156,9.704-6.47,12.939-11.182c1.677-2.237,3.146-4.634,4.447-7.149
			c3.909-7.548,6.335-16.174,8.492-24.8c1.078,6.47-4.313,11.86-3.4,18.135c-0.618,3.155-1.146,5.889-1.146,5.889
			s18.062-11.169,24.685-40.633c0.805-3.584,1.359-7.127,1.738-10.532c1.846-9.521-0.311-20.303-0.311-30.007
			c-1.078,7.548,2.156,14.018,3.234,20.486c2.156-10.782,6.47-22.644,0-32.348c2.156,5.392,5.392,10.782,4.313,17.252
			c6.47-12.939,5.392-28.035,3.852-42.308C425.666,267.365,425.23,264.887,424.689,262.329z"/>
	</g>
</g>
<path fill="#4D4D4D" d="M207.36,218.743c0,0,0.047,0.03,0.117,0.078c-0.049-0.043-0.078-0.068-0.094-0.083
	C207.38,218.74,207.36,218.743,207.36,218.743z"/>
<path fill="#4D4D4D" d="M207.356,218.715c0,0,0.02,0.017,0.027,0.022c0.02-0.003,0.085-0.013,0.191-0.032
	C207.443,218.711,207.356,218.715,207.356,218.715z"/>
<g>
	<g>
		<g>
			<defs>
				<filter id="Adobe_OpacityMaskFilter_2_" filterUnits="userSpaceOnUse" x="187.4" y="211.91" width="79.485" height="28.671">
					<feColorMatrix  type="matrix" values="1 0 0 0 0  0 1 0 0 0  0 0 1 0 0  0 0 0 1 0"/>
				</filter>
			</defs>
			<mask maskUnits="userSpaceOnUse" x="187.4" y="211.91" width="79.485" height="28.671" id="SVGID_6_">
				<g filter="url(#Adobe_OpacityMaskFilter_2_)">
				</g>
			</mask>
			<g mask="url(#SVGID_6_)">
				<path d="M187.4,239.546c0,0,8.938,0.68,14.828-0.939c5.89-1.622,13.063-13.589,19.753-18.941
					c8.727-6.981,18.222-8.237,29.354-7.616c11.134,0.622,15.55,4.68,15.55,4.68l-11.187,0.714c0,0-19.497-4.061-27.998,2.471
					c-8.5,6.53-17.404,18.904-25.238,20.206C194.63,241.423,187.4,239.546,187.4,239.546z"/>
			</g>
		</g>
		
			<linearGradient id="SVGID_7_" gradientUnits="userSpaceOnUse" x1="274.1255" y1="73.9417" x2="321.5014" y2="94.7356" gradientTransform="matrix(0.9985 -0.0554 -0.0554 -0.9985 -61.7355 327.3301)">
			<stop  offset="0" style="stop-color:#FFFFFF"/>
			<stop  offset="0.1599" style="stop-color:#F8F8F8"/>
			<stop  offset="0.3924" style="stop-color:#E5E5E5"/>
			<stop  offset="0.6691" style="stop-color:#C5C5C5"/>
			<stop  offset="0.978" style="stop-color:#999999"/>
		</linearGradient>
		<path fill="url(#SVGID_7_)" d="M187.4,239.546c0,0,12.773,2.019,18.522-1.477c5.749-3.498,15.014-17.972,27.333-21.457
			c12.32-3.485,23.4,0.484,23.4,0.484s-13.119,14.652-29.756,20.341C208.335,243.785,187.4,239.546,187.4,239.546z"/>
	</g>
	<g>
		<defs>
			<filter id="Adobe_OpacityMaskFilter_3_" filterUnits="userSpaceOnUse" x="199.133" y="217.444" width="57.439" height="22.649">
				<feColorMatrix  type="matrix" values="1 0 0 0 0  0 1 0 0 0  0 0 1 0 0  0 0 0 1 0"/>
			</filter>
		</defs>
		<mask maskUnits="userSpaceOnUse" x="199.133" y="217.444" width="57.439" height="22.649" id="SVGID_8_">
			<g filter="url(#Adobe_OpacityMaskFilter_3_)">
			</g>
		</mask>
		<g mask="url(#SVGID_8_)">
			<path d="M199.133,239.341c0,0,21.004,0.288,27.45-1.904c11.346-3.86,29.989-19.993,29.989-19.993s-11.043,17.41-28.719,20.943
				C212.015,241.555,199.133,239.341,199.133,239.341z"/>
		</g>
	</g>
	<g>
		
			<linearGradient id="SVGID_9_" gradientUnits="userSpaceOnUse" x1="281.8559" y1="129.5061" x2="238.9946" y2="104.4363" gradientTransform="matrix(1 0 0 -1 -41.5 348)">
			<stop  offset="0" style="stop-color:#FFFFFF"/>
			<stop  offset="1" style="stop-color:#FFCC99"/>
		</linearGradient>
		<path opacity="0.51" fill="url(#SVGID_9_)" enable-background="new    " d="M245.307,222.363c0,0,4.917,10.995-20.311,15.55
			c-17.136,3.094-23.206,1.071-23.206,1.071s-5.231-11.352,9.878-17.573C232.74,212.736,245.307,222.363,245.307,222.363z"/>
		<g>
			
				<radialGradient id="SVGID_10_" cx="269.0991" cy="112.9888" r="15.1861" gradientTransform="matrix(1 0 0 -1 -41.5 348)" gradientUnits="userSpaceOnUse">
				<stop  offset="0" style="stop-color:#F2F2F2"/>
				<stop  offset="0.8352" style="stop-color:#999999"/>
			</radialGradient>
			<circle fill="url(#SVGID_10_)" cx="219.345" cy="229.147" r="9.454"/>
			
				<linearGradient id="SVGID_11_" gradientUnits="userSpaceOnUse" x1="251.5" y1="118.638" x2="266.078" y2="118.638" gradientTransform="matrix(1 0 0 -1 -41.5 348)">
				<stop  offset="0" style="stop-color:#99CCFF"/>
				<stop  offset="0.205" style="stop-color:#7CBEFF"/>
				<stop  offset="0.532" style="stop-color:#55AAFF"/>
				<stop  offset="0.7919" style="stop-color:#3C9EFF"/>
				<stop  offset="0.9505" style="stop-color:#3399FF"/>
			</linearGradient>
			<circle fill="url(#SVGID_11_)" cx="217.289" cy="229.362" r="7.289"/>
			<circle cx="216.7" cy="228.51" r="4.054"/>
			<circle fill="#FFFFFF" cx="218.377" cy="227.334" r="2.157"/>
		</g>
	</g>
</g>
<g>
	<g>
		
			<radialGradient id="SVGID_12_" cx="173.4536" cy="108.9355" r="11.5271" gradientTransform="matrix(1 0 0 -1 -41.5 348)" gradientUnits="userSpaceOnUse">
			<stop  offset="0" style="stop-color:#F2F2F2"/>
			<stop  offset="0.8352" style="stop-color:#999999"/>
		</radialGradient>
		<circle fill="url(#SVGID_12_)" cx="125.688" cy="234.613" r="7.177"/>
		
			<linearGradient id="SVGID_13_" gradientUnits="userSpaceOnUse" x1="160.094" y1="113.224" x2="171.16" y2="113.224" gradientTransform="matrix(1 0 0 -1 -41.5 348)">
			<stop  offset="0" style="stop-color:#99CCFF"/>
			<stop  offset="0.205" style="stop-color:#7CBEFF"/>
			<stop  offset="0.532" style="stop-color:#55AAFF"/>
			<stop  offset="0.7919" style="stop-color:#3C9EFF"/>
			<stop  offset="0.9505" style="stop-color:#3399FF"/>
		</linearGradient>
		<circle fill="url(#SVGID_13_)" cx="124.127" cy="234.776" r="5.533"/>
		<circle cx="121.742" cy="234.479" r="3.05"/>
		<circle fill="#FFFFFF" cx="123.193" cy="233.715" r="1.638"/>
	</g>
</g>
<g>
	<defs>
		<filter id="Adobe_OpacityMaskFilter_4_" filterUnits="userSpaceOnUse" x="112.48" y="215.486" width="14.558" height="26.486">
			<feColorMatrix  type="matrix" values="1 0 0 0 0  0 1 0 0 0  0 0 1 0 0  0 0 0 1 0"/>
		</filter>
	</defs>
	<mask maskUnits="userSpaceOnUse" x="112.48" y="215.486" width="14.558" height="26.486" id="SVGID_19_">
		<g filter="url(#Adobe_OpacityMaskFilter_4_)">
		</g>
	</mask>
	<g mask="url(#SVGID_19_)">
		<path d="M125.271,241.972c0,0,3.621-3.88,0.495-10.618c-3.127-6.737-13.027-15.868-13.027-15.868s-1.446,4.813,2.492,8.449
			c3.939,3.635,8.278,6.854,9.764,10.223C127.127,238.99,125.271,241.972,125.271,241.972z"/>
	</g>
</g>
<path d="M125.64,241.437c0,0-1.586-0.118-4.163-2.695c-6.87-6.873-6.688-13.919-6.688-13.919s-1.148,7.606,5.657,14.722
	C123.942,243.2,125.64,241.437,125.64,241.437z"/>
<linearGradient id="SVGID_14_" gradientUnits="userSpaceOnUse" x1="131.625" y1="9.897" x2="271.0921" y2="9.897" gradientTransform="matrix(1 0 0 -1 -41.5 348)">
	<stop  offset="0" style="stop-color:#4D4D4D"/>
	<stop  offset="0.3153" style="stop-color:#4A4A4A"/>
	<stop  offset="0.5195" style="stop-color:#414141"/>
	<stop  offset="0.6922" style="stop-color:#323232"/>
	<stop  offset="0.8463" style="stop-color:#1D1D1D"/>
	<stop  offset="0.9884" style="stop-color:#030303"/>
	<stop  offset="1" style="stop-color:#000000"/>
</linearGradient>
<path fill="url(#SVGID_14_)" d="M99.09,347.634l-3.095,0.238c0,0,3.699,7.959,1.667,8.806c-2.856,1.191-7.537-1.982-7.537-1.982
	s3.33,3.567,4.918,4.126c1.464,0.514,3.273-0.785,4.522-0.714c1.691,0.095,13.258,9.485,35.231,2.753
	c25.996-7.964,37.917-17.078,52.119-24.889c19.04-10.472,19.495-11.236,36.812-15.232c6.188-1.428,6.928-4.662,4.76-6.029
	c-9.044-5.713-15.867,3.174-32.766,13.17c-14.313,8.467-44.032,24.99-62.121,31.179c-11.971,4.096-26.181-0.237-26.181-0.237
	s-5.429-0.988-6.426-2.381C99.711,354.65,99.09,347.634,99.09,347.634z"/>
<g>
	<g>
		
			<linearGradient id="SVGID_15_" gradientUnits="userSpaceOnUse" x1="115.7315" y1="16.7465" x2="169.0066" y2="1.7768" gradientTransform="matrix(1 0 0 -1 -41.5 348)">
			<stop  offset="0" style="stop-color:#CCCCCC"/>
			<stop  offset="0.002" style="stop-color:#CBCBCB"/>
			<stop  offset="0.0972" style="stop-color:#9C9C9C"/>
			<stop  offset="0.196" style="stop-color:#727272"/>
			<stop  offset="0.3008" style="stop-color:#4F4F4F"/>
			<stop  offset="0.4108" style="stop-color:#323232"/>
			<stop  offset="0.5277" style="stop-color:#1C1C1C"/>
			<stop  offset="0.6547" style="stop-color:#0C0C0C"/>
			<stop  offset="0.7993" style="stop-color:#030303"/>
			<stop  offset="1" style="stop-color:#000000"/>
		</linearGradient>
		<path fill="url(#SVGID_15_)" d="M94.541,350.707c-6.8-0.681-8.67-4.952-11.501-6.11c-3.953-1.617-7.246-9.46-6.238-12.434
			c1.46-4.316,4.52-7.071,18.968-6.598c25.153,0.825,23.504,9.072,23.504,9.072s2.072,7.727-7.12,10.318
			C102.605,347.647,105.323,351.785,94.541,350.707z"/>
	</g>
</g>
<g>
	<defs>
		<filter id="Adobe_OpacityMaskFilter_5_" filterUnits="userSpaceOnUse" x="201.909" y="313.623" width="26.265" height="12.353">
			<feColorMatrix  type="matrix" values="1 0 0 0 0  0 1 0 0 0  0 0 1 0 0  0 0 0 1 0"/>
		</filter>
	</defs>
	<mask maskUnits="userSpaceOnUse" x="201.909" y="313.623" width="26.265" height="12.353" id="SVGID_22_">
		<g filter="url(#Adobe_OpacityMaskFilter_5_)">
		</g>
	</mask>
	<g mask="url(#SVGID_22_)">
		<path fill="#996666" d="M201.909,325.976c0,0,13.814-9.575,17.375-10.948c2.001-0.772,6.902-2.856,8.806,0.238
			c0.874,1.419-5.289,3.828-7.616,4.521C217.143,320.78,201.909,325.976,201.909,325.976z"/>
	</g>
</g>
<g opacity="0.18">
	<g>
		<g>
			
				<linearGradient id="SVGID_16_" gradientUnits="userSpaceOnUse" x1="145.9618" y1="-1258.4484" x2="173.1768" y2="-1258.4484" gradientTransform="matrix(-0.1491 -0.9888 -0.9888 0.1491 -1007.6987 562.2525)">
				<stop  offset="0" style="stop-color:#B2B2B2"/>
				<stop  offset="0.3664" style="stop-color:#919191"/>
				<stop  offset="0.7731" style="stop-color:#727272"/>
				<stop  offset="1" style="stop-color:#666666"/>
			</linearGradient>
			<path fill="url(#SVGID_16_)" d="M207.981,231.333c0,0-2.552-10.568,10.63-29.125C210.46,210.028,203.478,227.187,207.981,231.333
				z"/>
		</g>
	</g>
</g>
<g opacity="0.18">
	<g>
		<g>
			
				<linearGradient id="SVGID_17_" gradientUnits="userSpaceOnUse" x1="84.0136" y1="366.3665" x2="114.0186" y2="366.3665" gradientTransform="matrix(-0.0572 -0.7845 0.7765 -0.214 -154.0382 376.5044)">
				<stop  offset="0" style="stop-color:#B2B2B2"/>
				<stop  offset="0.3664" style="stop-color:#919191"/>
				<stop  offset="0.7731" style="stop-color:#727272"/>
				<stop  offset="1" style="stop-color:#666666"/>
			</linearGradient>
			<path fill="url(#SVGID_17_)" d="M131.624,230.544c0,0,0.129-9.59-14.434-20.034C125.5,213.969,134.606,225.512,131.624,230.544z"
				/>
		</g>
	</g>
</g>
<g opacity="0.18">
	<g>
		<g>
			
				<linearGradient id="SVGID_18_" gradientUnits="userSpaceOnUse" x1="328.7783" y1="240.3752" x2="358.784" y2="240.3752" gradientTransform="matrix(0.0869 -0.7357 0.8104 -0.0339 -98.3919 481.6162)">
				<stop  offset="0" style="stop-color:#B2B2B2"/>
				<stop  offset="0.3664" style="stop-color:#919191"/>
				<stop  offset="0.7731" style="stop-color:#727272"/>
				<stop  offset="1" style="stop-color:#666666"/>
			</linearGradient>
			<path fill="url(#SVGID_18_)" d="M131.225,231.324c0,0,1.884-8.82-10.666-21.52C128.178,214.745,135.107,227.31,131.225,231.324z"
				/>
		</g>
	</g>
</g>
<g opacity="0.18">
	<g>
		<g>
			
				<linearGradient id="SVGID_20_" gradientUnits="userSpaceOnUse" x1="482.3137" y1="111.7836" x2="511.5232" y2="111.7836" gradientTransform="matrix(0.2138 -0.7093 0.8039 0.1078 -68.0287 560.9501)">
				<stop  offset="0" style="stop-color:#B2B2B2"/>
				<stop  offset="0.3664" style="stop-color:#919191"/>
				<stop  offset="0.7731" style="stop-color:#727272"/>
				<stop  offset="1" style="stop-color:#666666"/>
			</linearGradient>
			<path fill="url(#SVGID_20_)" d="M130.984,231.704c0,0,3.302-8.136-6.572-22.437C130.876,215.295,135.387,228.513,130.984,231.704
				z"/>
		</g>
	</g>
</g>
<g opacity="0.18">
	<g>
		<g>
			
				<linearGradient id="SVGID_21_" gradientUnits="userSpaceOnUse" x1="533.5492" y1="61.8435" x2="562.7531" y2="61.8435" gradientTransform="matrix(0.2553 -0.6955 0.7961 0.155 -60.3415 588.2947)">
				<stop  offset="0" style="stop-color:#B2B2B2"/>
				<stop  offset="0.3664" style="stop-color:#919191"/>
				<stop  offset="0.7731" style="stop-color:#727272"/>
				<stop  offset="1" style="stop-color:#666666"/>
			</linearGradient>
			<path fill="url(#SVGID_21_)" d="M131.081,227.96c0,0,3.775-7.925-5.239-22.783C131.94,211.575,135.664,225.035,131.081,227.96z"
				/>
		</g>
	</g>
</g>
<g opacity="0.18">
	<g>
		<g>
			
				<linearGradient id="SVGID_23_" gradientUnits="userSpaceOnUse" x1="297.5824" y1="-1159.8748" x2="324.0309" y2="-1159.8748" gradientTransform="matrix(0.074 -0.9973 -0.9973 -0.074 -964.2023 439.2571)">
				<stop  offset="0" style="stop-color:#B2B2B2"/>
				<stop  offset="0.3664" style="stop-color:#919191"/>
				<stop  offset="0.7731" style="stop-color:#727272"/>
				<stop  offset="1" style="stop-color:#666666"/>
			</linearGradient>
			<path fill="url(#SVGID_23_)" d="M208.175,227.835c0,0-0.577-10.933,15.732-25.355
				C214.49,207.856,204.515,222.602,208.175,227.835z"/>
		</g>
	</g>
</g>
<g opacity="0.18">
	<g>
		<g>
			
				<linearGradient id="SVGID_24_" gradientUnits="userSpaceOnUse" x1="439.8703" y1="-1010.6161" x2="466.3185" y2="-1010.6161" gradientTransform="matrix(0.325 -0.9457 -0.9457 -0.325 -883.2514 314.867)">
				<stop  offset="0" style="stop-color:#B2B2B2"/>
				<stop  offset="0.3664" style="stop-color:#919191"/>
				<stop  offset="0.7731" style="stop-color:#727272"/>
				<stop  offset="1" style="stop-color:#666666"/>
			</linearGradient>
			<path fill="url(#SVGID_24_)" d="M209.388,225.25c0,0,2.221-10.721,21.661-20.522C220.574,207.533,207.178,219.26,209.388,225.25z
				"/>
		</g>
	</g>
</g>
<g opacity="0.18">
	<g>
		<g>
			
				<linearGradient id="SVGID_25_" gradientUnits="userSpaceOnUse" x1="445.026" y1="-1011.2592" x2="471.4735" y2="-1011.2592" gradientTransform="matrix(0.325 -0.9457 -0.9457 -0.325 -883.2514 314.867)">
				<stop  offset="0" style="stop-color:#B2B2B2"/>
				<stop  offset="0.3664" style="stop-color:#919191"/>
				<stop  offset="0.7731" style="stop-color:#727272"/>
				<stop  offset="1" style="stop-color:#666666"/>
			</linearGradient>
			<path fill="url(#SVGID_25_)" d="M211.671,220.583c0,0,2.222-10.719,21.662-20.521
				C222.857,202.866,209.462,214.593,211.671,220.583z"/>
		</g>
	</g>
</g>
</svg>
